<mxfile host="app.diagrams.net" modified="2023-11-01T12:00:00.000Z" agent="Mozilla/5.0" etag="abc123" version="21.6.6">
  <diagram name="Страница авторизации - Мобильная версия" id="auth-page-mobile">
    <mxGraphModel dx="375" dy="667" grid="1" gridSize="10" guides="1" tooltips="1" connect="1" arrows="1" fold="1" page="1" pageScale="1" pageWidth="375" pageHeight="667" math="0" shadow="0">
      <root>
        <mxCell id="0" />
        <mxCell id="1" parent="0" />
        <!-- Верхняя панель навигации -->
        <mxCell id="header" value="" style="rounded=0;whiteSpace=wrap;html=1;fillColor=#f5f5f5;strokeColor=#666666;fontColor=#333333;" vertex="1" parent="1">
          <mxGeometry x="0" y="0" width="375" height="50" as="geometry" />
        </mxCell>
        <mxCell id="page_title" value="Авторизация" style="text;html=1;strokeColor=none;fillColor=none;align=center;verticalAlign=middle;whiteSpace=wrap;rounded=0;fontStyle=1;fontSize=18;" vertex="1" parent="1">
          <mxGeometry x="107.5" y="10" width="160" height="30" as="geometry" />
        </mxCell>
        <!-- Логотип -->
        <mxCell id="logo_container" value="" style="rounded=0;whiteSpace=wrap;html=1;fillColor=#f9f9f9;strokeColor=none;" vertex="1" parent="1">
          <mxGeometry x="87.5" y="70" width="200" height="100" as="geometry" />
        </mxCell>
        <mxCell id="logo_text" value="GeekHeaven" style="text;html=1;strokeColor=none;fillColor=none;align=center;verticalAlign=middle;whiteSpace=wrap;rounded=0;fontSize=24;fontStyle=1" vertex="1" parent="1">
          <mxGeometry x="87.5" y="130" width="200" height="40" as="geometry" />
        </mxCell>
        <!-- Форма авторизации -->
        <mxCell id="auth_form" value="" style="rounded=1;whiteSpace=wrap;html=1;fillColor=#ffffff;strokeColor=#dddddd;" vertex="1" parent="1">
          <mxGeometry x="20" y="190" width="335" height="320" as="geometry" />
        </mxCell>
        <!-- Переключатель входа/регистрации -->
        <mxCell id="auth_toggle" value="" style="rounded=1;whiteSpace=wrap;html=1;fillColor=#f5f5f5;strokeColor=#dddddd;" vertex="1" parent="1">
          <mxGeometry x="40" y="210" width="295" height="40" as="geometry" />
        </mxCell>
        <mxCell id="toggle_login" value="Вход" style="text;html=1;strokeColor=none;fillColor=#dae8fc;align=center;verticalAlign=middle;whiteSpace=wrap;rounded=1;fontSize=14;fontStyle=1" vertex="1" parent="1">
          <mxGeometry x="50" y="215" width="137.5" height="30" as="geometry" />
        </mxCell>
        <mxCell id="toggle_register" value="Регистрация" style="text;html=1;strokeColor=none;fillColor=none;align=center;verticalAlign=middle;whiteSpace=wrap;rounded=1;fontSize=14;" vertex="1" parent="1">
          <mxGeometry x="187.5" y="215" width="137.5" height="30" as="geometry" />
        </mxCell>
        <!-- Поля ввода -->
        <mxCell id="email_label" value="Email" style="text;html=1;strokeColor=none;fillColor=none;align=left;verticalAlign=bottom;whiteSpace=wrap;rounded=0;fontSize=12;fontColor=#666666;" vertex="1" parent="1">
          <mxGeometry x="40" y="270" width="295" height="20" as="geometry" />
        </mxCell>
        <mxCell id="email_input" value="" style="rounded=1;whiteSpace=wrap;html=1;fillColor=#ffffff;strokeColor=#cccccc;" vertex="1" parent="1">
          <mxGeometry x="40" y="290" width="295" height="40" as="geometry" />
        </mxCell>
        <mxCell id="password_label" value="Пароль" style="text;html=1;strokeColor=none;fillColor=none;align=left;verticalAlign=bottom;whiteSpace=wrap;rounded=0;fontSize=12;fontColor=#666666;" vertex="1" parent="1">
          <mxGeometry x="40" y="340" width="295" height="20" as="geometry" />
        </mxCell>
        <mxCell id="password_input" value="" style="rounded=1;whiteSpace=wrap;html=1;fillColor=#ffffff;strokeColor=#cccccc;" vertex="1" parent="1">
          <mxGeometry x="40" y="360" width="295" height="40" as="geometry" />
        </mxCell>
        <!-- Кнопка входа -->
        <mxCell id="login_button" value="Войти" style="rounded=1;whiteSpace=wrap;html=1;fillColor=#dae8fc;strokeColor=#6c8ebf;fontSize=14;fontStyle=1;fontColor=#ffffff;" vertex="1" parent="1">
          <mxGeometry x="40" y="430" width="295" height="40" as="geometry" />
        </mxCell>
        <!-- Дополнительные опции -->
        <mxCell id="forgot_password" value="Забыли пароль?" style="text;html=1;strokeColor=none;fillColor=none;align=center;verticalAlign=middle;whiteSpace=wrap;rounded=0;fontSize=12;fontColor=#0066cc;" vertex="1" parent="1">
          <mxGeometry x="137.5" y="480" width="100" height="20" as="geometry" />
        </mxCell>
        <!-- Социальные сети -->
        <mxCell id="social_login" value="" style="rounded=1;whiteSpace=wrap;html=1;fillColor=#ffffff;strokeColor=#dddddd;" vertex="1" parent="1">
          <mxGeometry x="20" y="530" width="335" height="100" as="geometry" />
        </mxCell>
        <mxCell id="social_title" value="Войти через" style="text;html=1;strokeColor=none;fillColor=none;align=center;verticalAlign=middle;whiteSpace=wrap;rounded=0;fontSize=12;fontColor=#666666;" vertex="1" parent="1">
          <mxGeometry x="137.5" y="540" width="100" height="20" as="geometry" />
        </mxCell>
        <mxCell id="social_buttons" value="" style="rounded=1;whiteSpace=wrap;html=1;fillColor=#f5f5f5;strokeColor=none;" vertex="1" parent="1">
          <mxGeometry x="40" y="570" width="295" height="40" as="geometry" />
        </mxCell>
        <mxCell id="google_button" value="Google" style="rounded=1;whiteSpace=wrap;html=1;fillColor=#ffffff;strokeColor=#dddddd;fontSize=12;" vertex="1" parent="1">
          <mxGeometry x="50" y="575" width="85" height="30" as="geometry" />
        </mxCell>
        <mxCell id="vk_button" value="VK" style="rounded=1;whiteSpace=wrap;html=1;fillColor=#ffffff;strokeColor=#dddddd;fontSize=12;" vertex="1" parent="1">
          <mxGeometry x="145" y="575" width="85" height="30" as="geometry" />
        </mxCell>
        <mxCell id="discord_button" value="Discord" style="rounded=1;whiteSpace=wrap;html=1;fillColor=#ffffff;strokeColor=#dddddd;fontSize=12;" vertex="1" parent="1">
          <mxGeometry x="240" y="575" width="85" height="30" as="geometry" />
        </mxCell>
      </root>
    </mxGraphModel>
  </diagram>
</mxfile>